<?xml version="1.0" encoding="iso-8859-1"?>
<!-- Uploaded to: SVG Repo, www.svgrepo.com, Generator: SVG Repo Mixer Tools -->
<svg fill="#CC9767" height="60px" width="60px" version="1.1" id="Layer_1" xmlns="http://www.w3.org/2000/svg" xmlns:xlink="http://www.w3.org/1999/xlink" 
	 viewBox="0 0 512.001 512.001" xml:space="preserve">
<g>
	<g>
		<path d="M146.266,135.052c-4.266-0.723-8.318,2.148-9.043,6.417l-15.677,92.284c-0.726,4.269,2.147,8.318,6.417,9.043
			c0.444,0.075,0.887,0.112,1.323,0.112c3.753,0,7.071-2.704,7.721-6.529l15.677-92.285
			C153.409,139.827,150.536,135.778,146.266,135.052z"/>
	</g>
</g>
<g>
	<g>
		<path d="M201.141,134.97c-4.314-0.353-8.11,2.835-8.477,7.149l-7.839,92.284c-0.367,4.315,2.834,8.11,7.149,8.477
			c0.226,0.019,0.45,0.028,0.672,0.028c4.029,0,7.457-3.089,7.804-7.178l7.839-92.284
			C208.656,139.132,205.455,135.337,201.141,134.97z"/>
	</g>
</g>
<g>
	<g>
		<path d="M256,134.941c-4.33,0-7.841,3.511-7.841,7.841v92.284c0,4.33,3.511,7.841,7.841,7.841c4.33,0,7.841-3.511,7.841-7.841
			v-92.284C263.841,138.452,260.33,134.941,256,134.941z"/>
	</g>
</g>
<g>
	<g>
		<path d="M327.175,234.403l-7.839-92.285c-0.367-4.314-4.153-7.512-8.477-7.149c-4.315,0.367-7.516,4.161-7.149,8.477l7.839,92.284
			c0.347,4.089,3.774,7.178,7.804,7.178c0.222,0,0.446-0.009,0.672-0.028C324.341,242.513,327.542,238.719,327.175,234.403z"/>
	</g>
</g>
<g>
	<g>
		<path d="M390.454,233.754l-15.677-92.285c-0.726-4.27-4.773-7.144-9.043-6.417c-4.27,0.726-7.143,4.774-6.417,9.043l15.677,92.285
			c0.65,3.825,3.966,6.529,7.721,6.529c0.436,0,0.878-0.037,1.323-0.112C388.306,242.072,391.179,238.024,390.454,233.754z"/>
	</g>
</g>
<g>
	<g>
		<path d="M504.159,276.272h-15.896L454.34,124.028c-3.138-14.086-17.3-24.309-33.673-24.309h-91.994V75.466
			c0-17.63-14.343-31.972-31.972-31.972h-81.399c-13.141,0-24.793,7.881-29.684,20.077c-1.612,4.02,0.34,8.584,4.359,10.196
			c4.023,1.614,8.584-0.34,10.196-4.359c2.493-6.216,8.432-10.233,15.13-10.233h81.399c8.983,0,16.29,7.308,16.29,16.29v24.252
			H199.01v-7.463c0-4.33-3.511-7.841-7.841-7.841c-4.33,0-7.841,3.511-7.841,7.841v7.463H91.334
			c-16.373,0-30.535,10.224-33.673,24.309L23.737,276.272H7.841c-4.33,0-7.841,3.511-7.841,7.841c0,4.33,3.511,7.841,7.841,7.841
			h15.896l11.437,51.328c0.813,3.653,4.052,6.138,7.645,6.137c0.565,0,1.138-0.062,1.712-0.189c4.227-0.942,6.89-5.132,5.948-9.359
			l-10.677-47.917h62.945v11.862c0,4.33,3.511,7.841,7.841,7.841h57.235c4.33,0,7.841-3.511,7.841-7.841v-11.862h160.671v11.862
			c0,4.33,3.511,7.841,7.841,7.841h57.235c4.33,0,7.841-3.511,7.841-7.841v-11.862h62.945l-33.163,148.833
			c-1.529,6.863-9.426,12.039-18.367,12.039H91.334c-8.942,0-16.837-5.175-18.367-12.039l-16.86-75.666
			c-0.942-4.227-5.132-6.894-9.359-5.948c-4.227,0.942-6.89,5.132-5.948,9.359l16.86,75.666c3.138,14.085,17.3,24.309,33.673,24.309
			h329.334c16.373,0,30.535-10.224,33.673-24.309l33.923-152.244h15.896c4.33,0,7.841-3.511,7.841-7.841
			C512,279.783,508.489,276.272,504.159,276.272z M159.983,295.975H118.43V272.25h41.553V295.975z M393.57,295.975h-41.553V272.25
			h41.553V295.975z M409.252,276.272v-11.863c0-4.33-3.511-7.841-7.841-7.841h-57.235c-4.33,0-7.841,3.511-7.841,7.841v11.863
			H175.665v-11.863c0-4.33-3.511-7.841-7.841-7.841h-57.235c-4.33,0-7.841,3.511-7.841,7.841v11.863H39.803l33.163-148.834
			c1.529-6.863,9.426-12.039,18.367-12.039h329.334c8.942,0,16.837,5.175,18.367,12.039l33.163,148.834H409.252z"/>
	</g>
</g>
</svg>