<?xml version="1.0" encoding="iso-8859-1"?>
<svg fill="#CC9767" height="60px" width="60px" version="1.1" id="Layer_1" xmlns="http://www.w3.org/2000/svg" xmlns:xlink="http://www.w3.org/1999/xlink" 
	 viewBox="0 0 512.001 512.001" xml:space="preserve">
<g>
	<g>
		<path d="M268.243,244.621l-0.875-0.876c-22.65-22.65-61.613-32.593-109.714-28.008c-41.41,3.951-84.736,18.156-115.898,37.999
			c-33.8,21.524-47.78,46.122-39.368,69.266c9.241,25.421,27.69,46.511,54.831,62.684c7.097,4.229,14.003,8.966,20.529,14.081
			c4.063,3.185,9.941,2.475,13.126-1.591c3.185-4.064,2.473-9.94-1.591-13.126c-7.148-5.604-14.716-10.793-22.493-15.427
			c-23.344-13.909-39.099-31.744-46.829-53.009c-7.148-19.663,19.884-39.492,31.837-47.104
			c59.464-37.866,162.983-51.905,202.346-12.542l0.875,0.875c39.363,39.363,25.325,142.881-12.542,202.346
			c-7.612,11.954-27.446,38.988-47.103,31.837c-21.266-7.73-39.1-23.486-53.009-46.829c-8.284-13.904-18.193-26.912-29.453-38.668
			c-3.57-3.729-9.489-3.857-13.219-0.284c-3.729,3.572-3.856,9.491-0.284,13.219c10.282,10.735,19.331,22.614,26.892,35.303
			c16.172,27.143,37.263,45.591,62.684,54.833c4.396,1.598,8.842,2.387,13.313,2.387c19.063,0,38.518-14.376,55.953-41.755
			c19.844-31.162,34.049-74.488,37.999-115.898C300.839,306.234,290.892,267.271,268.243,244.621z"/>
	</g>
</g>
<g>
	<g>
		<path d="M357.942,47.77c-8.887-19.741-24.931-34.841-45.174-42.515c-37.893-14.369-80.922,1.679-100.086,37.324
			c-2.445,4.548-0.74,10.217,3.808,12.662c4.548,2.445,10.216,0.742,12.662-3.808c14.736-27.411,47.834-39.745,76.987-28.693
			c15.573,5.904,27.916,17.52,34.752,32.706c6.836,15.188,7.35,32.127,1.446,47.701c-6.77,17.859-24.25,41.362-43.496,58.483
			c-21.272,18.925-40.858,26.977-53.737,22.098c-23.576-8.938-31.718-62.959-24.28-105.853c0.883-5.087-2.527-9.927-7.614-10.809
			c-5.084-0.883-9.927,2.526-10.809,7.614c-7.626,43.971-1.474,112.297,36.075,126.532c4.564,1.73,9.438,2.585,14.572,2.585
			c17.247,0,37.382-9.655,58.223-28.196c21.297-18.946,40.808-45.399,48.551-65.825C367.497,89.531,366.829,67.51,357.942,47.77z"/>
	</g>
</g>
<g>
	<g>
		<path d="M152.463,83.405c-6.642-32.886-35.78-56.755-69.285-56.755c-4.697,0-9.431,0.475-14.072,1.412
			c-38.24,7.723-63.066,45.116-55.344,83.356c3.548,17.559,15.212,41.06,29.717,59.873c10.367,13.446,31.255,36.002,54.682,36.005
			c0.001,0,0.003,0,0.004,0c2.366,0,4.722-0.234,7.002-0.694c18.376-3.712,33.33-22.429,42.102-52.706
			C154.226,129.894,156.264,102.224,152.463,83.405z M129.311,148.69c-6.545,22.585-16.954,37.382-27.844,39.581
			c-1.065,0.214-2.174,0.324-3.3,0.324c0,0-0.001,0-0.003,0c-25.158-0.003-60.071-51.177-66.071-80.879
			C26.411,79.584,44.676,52.073,72.81,46.391c3.424-0.692,6.913-1.042,10.369-1.042c24.639,0,46.069,17.561,50.956,41.757
			C137.284,102.696,135.301,128.021,129.311,148.69z"/>
	</g>
</g>
<g>
	<g>
		<path d="M506.733,199.219c-11.869-31.305-42.33-52.337-75.799-52.337c-9.811,0-19.473,1.778-28.72,5.283
			c-20.426,7.743-46.879,27.255-65.825,48.551c-24.06,27.044-33.155,52.896-25.611,72.795c13.695,36.123,73.75,38.931,91.83,38.931
			c21.681,0,42.482-3.173,57.071-8.703C501.467,287.896,522.576,241.01,506.733,199.219z M453.05,286.254
			c-12.369,4.689-31.225,7.488-50.442,7.488c-38.977,0-68.159-10.544-74.346-26.861c-4.882-12.878,3.173-32.463,22.098-53.737
			c17.121-19.245,40.624-36.725,58.483-43.496c7.122-2.7,14.554-4.069,22.091-4.069c25.748,0,49.183,16.181,58.314,40.267
			C501.436,237.997,485.198,274.067,453.05,286.254z"/>
	</g>
</g>
<g>
	<g>
		<path d="M473.518,389.741c-10.453-15.745-26.411-26.476-44.936-30.217c-6.12-1.237-13.267-1.864-21.24-1.864
			c-35.581,0-94.724,13.346-101.957,49.159c-8.092,40.064,57.806,83.854,95.183,91.403c4.64,0.938,9.375,1.412,14.072,1.412
			c33.504,0,62.643-23.869,69.286-56.755C487.667,424.357,483.971,405.485,473.518,389.741z M465.596,439.178
			c-4.887,24.197-26.317,41.758-50.956,41.758c-3.457,0-6.945-0.35-10.369-1.042c-31.775-6.418-85.564-44.578-80.556-69.372
			c4.066-20.132,47.337-34.161,83.628-34.161c6.638,0,12.703,0.516,17.537,1.493c13.628,2.753,25.369,10.647,33.058,22.23
			C465.63,411.665,468.349,425.55,465.596,439.178z"/>
	</g>
</g>
</svg>