<?xml version="1.0" encoding="iso-8859-1"?>
<svg fill="#CC9767" height="60px" width="60px" version="1.1" id="Layer_1" xmlns="http://www.w3.org/2000/svg" xmlns:xlink="http://www.w3.org/1999/xlink" 
	 viewBox="0 0 512.001 512.001" xml:space="preserve">
<g>
	<g>
		<path d="M449.297,80.965c0.654-0.13,1.316-0.258,1.947-0.39c18.222-3.773,30.359-8.334,30.359-18.323
			c0-9.548-11.642-13.775-23.029-16.651c-11.325-2.86-27.393-5.413-47.757-7.589c-41.398-4.422-96.381-6.858-154.818-6.858
			s-113.419,2.436-154.818,6.859c-20.364,2.176-36.432,4.729-47.757,7.589c-11.387,2.876-23.029,7.103-23.029,16.651
			c0,9.548,11.642,13.775,23.029,16.651c2.802,0.707,5.897,1.397,9.273,2.065C22.171,127.552,0,186.583,0,248.772
			c0,2.468,0.036,4.974,0.107,7.45c0.121,4.249,3.603,7.612,7.827,7.612c0.075,0,0.151-0.001,0.228-0.003
			c4.325-0.123,7.731-3.729,7.608-8.054c-0.067-2.327-0.1-4.684-0.1-7.004c0-61.641,23.187-119.987,65.38-164.752
			c1.28,0.181,2.586,0.359,3.914,0.537c0.027,0.003,0.054,0.007,0.081,0.01c5.037,0.67,10.41,1.313,16.138,1.924
			c38.281,4.09,88.181,6.479,141.684,6.815c0.186,0.001,0.372,0.002,0.559,0.004c1.752,0.01,3.508,0.019,5.267,0.025
			c0.4,0.001,0.799,0.003,1.199,0.005c2.032,0.006,4.068,0.009,6.108,0.009c3.157,0,6.309-0.01,9.459-0.024
			c3.64-0.017,7.277-0.041,10.9-0.077c0.897-0.009,1.789-0.021,2.686-0.031c1.355-0.016,2.711-0.029,4.061-0.047
			c0.804-0.01,1.604-0.024,2.408-0.037c1.437-0.021,2.876-0.041,4.308-0.065c1.117-0.019,2.226-0.041,3.34-0.062
			c1.107-0.021,2.217-0.039,3.321-0.062c1.353-0.027,2.698-0.058,4.046-0.088c0.863-0.019,1.73-0.037,2.592-0.056
			c1.257-0.029,2.504-0.063,3.754-0.095c0.944-0.024,1.893-0.046,2.834-0.072c1.181-0.032,2.353-0.068,3.529-0.101
			c1.002-0.029,2.009-0.056,3.006-0.087c1.373-0.042,2.734-0.088,4.098-0.133c0.786-0.026,1.577-0.05,2.36-0.076
			c1.435-0.049,2.857-0.101,4.282-0.154c0.708-0.026,1.423-0.05,2.129-0.076c1.592-0.061,3.17-0.124,4.75-0.188
			c0.523-0.021,1.053-0.041,1.574-0.063c1.586-0.066,3.157-0.136,4.728-0.206c0.511-0.023,1.028-0.044,1.537-0.067
			c2.01-0.091,4.005-0.186,5.989-0.284c0.053-0.003,0.108-0.005,0.162-0.007c4.139-0.205,8.219-0.423,12.23-0.655
			c4.319-0.25,7.618-3.955,7.369-8.274c-0.249-4.319-3.939-7.63-8.274-7.369c-0.18,0.01-0.362,0.02-0.542,0.03
			c-1.825,0.106-3.661,0.208-5.513,0.307c-0.455,0.024-0.92,0.047-1.378,0.071c-1.548,0.081-3.098,0.163-4.664,0.24
			c-0.406,0.02-0.821,0.039-1.229,0.058c-1.621,0.078-3.245,0.157-4.882,0.231c-0.604,0.027-1.216,0.052-1.823,0.079
			c-1.453,0.065-2.905,0.128-4.372,0.19c-0.839,0.034-1.688,0.067-2.531,0.1c-1.244,0.05-2.485,0.1-3.738,0.148
			c-1.15,0.044-2.311,0.084-3.467,0.124c-0.958,0.034-1.91,0.07-2.872,0.103c-1.267,0.043-2.545,0.083-3.82,0.123
			c-0.868,0.027-1.73,0.057-2.601,0.084c-1.214,0.037-2.439,0.07-3.659,0.106c-0.941,0.027-1.876,0.055-2.821,0.08
			c-1.481,0.04-2.973,0.076-4.463,0.113c-0.685,0.017-1.365,0.036-2.053,0.052c-1.645,0.039-3.299,0.073-4.952,0.108
			c-0.544,0.011-1.083,0.024-1.628,0.035c-1.619,0.032-3.246,0.061-4.872,0.09c-0.585,0.01-1.166,0.022-1.752,0.032
			c-1.14,0.019-2.287,0.034-3.429,0.051c-1.083,0.017-2.164,0.034-3.25,0.049c-0.773,0.01-1.549,0.018-2.323,0.027
			c-1.449,0.018-2.897,0.037-4.35,0.051c-1.211,0.013-2.426,0.021-3.639,0.03c-1.027,0.008-2.051,0.019-3.078,0.026
			c-4.48,0.029-8.974,0.045-13.474,0.045c-1.999,0-3.995-0.004-5.986-0.009c-0.528-0.002-1.054-0.004-1.582-0.006
			c-1.575-0.006-3.148-0.014-4.719-0.023c-0.444-0.003-0.889-0.005-1.333-0.008c-65.004-0.438-125.195-3.992-163.028-9.697
			c-0.001,0-0.003,0-0.004,0c-13.87-2.095-22.256-4.116-27.261-5.686c8.066-2.529,24.892-6.227,59.323-9.526
			c39.735-3.807,91.085-5.903,144.59-5.903c53.505,0,104.855,2.096,144.59,5.903c34.452,3.301,51.279,7.001,59.338,9.531
			c-4.976,1.566-13.306,3.578-27.055,5.661c-0.075,0.009-0.15,0.009-0.226,0.021c-11.554,1.742-25.275,3.299-40.863,4.639
			c-0.251,0.022-0.507,0.043-0.759,0.065c-0.901,0.076-1.806,0.154-2.72,0.229c-0.479,0.04-0.971,0.078-1.457,0.118
			c-0.686,0.055-1.369,0.112-2.062,0.166c-0.003,0-0.005,0.001-0.007,0.001c-0.037,0.003-0.071,0.006-0.108,0.008
			c-4.314,0.341-7.535,4.114-7.194,8.427c0.339,4.312,4.107,7.541,8.426,7.193c1.972-0.156,3.912-0.317,5.835-0.478
			c0.638-0.054,1.266-0.11,1.899-0.164c1.182-0.102,2.358-0.206,3.521-0.311c0.857-0.077,1.707-0.156,2.552-0.234
			c0.833-0.077,1.657-0.157,2.479-0.235c1.046-0.1,2.09-0.201,3.117-0.303c0.185-0.019,0.365-0.038,0.548-0.056
			c4.455-0.447,8.729-0.914,12.826-1.4c0.026-0.003,0.053-0.006,0.08-0.009c4.257-0.505,8.341-1.028,12.193-1.572
			c42.193,44.764,65.379,103.11,65.379,164.751c0,65.609-25.953,126.896-73.078,172.572
			c-29.163,28.266-67.877,43.831-109.011,43.831H197.759c-41.134,0-79.848-15.567-109.011-43.831
			c-38.714-37.523-63.92-87.472-70.976-140.647c-0.569-4.29-4.519-7.305-8.797-6.736c-4.289,0.568-7.305,4.507-6.736,8.797
			c7.518,56.657,34.367,109.87,75.604,149.837c32.102,31.114,74.689,48.249,119.917,48.249h116.483
			c45.228,0,87.814-17.136,119.917-48.249c24.36-23.612,43.511-51.303,56.919-82.306c13.883-32.103,20.922-66.257,20.922-101.517
			C512,186.581,489.827,127.548,449.297,80.965z"/>
	</g>
</g>
<g>
	<g>
		<path d="M372.579,338.021l17.363-62.854c0.909-3.292-0.418-6.793-3.282-8.654c-2.863-1.863-6.602-1.654-9.242,0.514
			l-43.983,36.112c-12.171-11.031-30.121-19.428-50.872-23.74l-3.14-19.148c-0.415-2.528-2.04-4.694-4.352-5.8
			c-2.312-1.106-5.018-1.012-7.247,0.255l-42.029,23.854c-16.743,3.413-32.158,10.219-44.729,18.437
			c-17.909,11.621-30.566,26.337-31.978,38.857c-0.015,0.125-0.039,0.254-0.05,0.378c-0.043,0.452-0.057,0.899-0.07,1.345
			c-0.004,0.168-0.026,0.342-0.026,0.508c0,0.009,0.001,0.02,0.001,0.029c0,0.011-0.001,0.023-0.001,0.034
			c-0.001,18.64,29.616,44.729,63.38,55.83c0.391,0.128,0.788,0.223,1.186,0.287c3.951,1.269,7.987,2.362,12.088,3.23l42.23,23.968
			c1.197,0.679,2.531,1.022,3.867,1.022c1.153,0,2.309-0.255,3.379-0.767c2.312-1.105,3.937-3.272,4.352-5.8l3.14-19.15
			c20.751-4.31,38.7-12.708,50.872-23.738l43.983,36.112c2.638,2.168,6.376,2.374,9.239,0.515c2.863-1.86,4.192-5.36,3.285-8.651
			L372.579,338.021z M212.232,377.26c-14.013-5.34-24.319-12.437-30.025-16.98c-0.705-0.562-1.376-1.117-2.034-1.669
			c-0.283-0.239-0.561-0.478-0.838-0.718c-0.297-0.256-0.586-0.509-0.872-0.763c-0.401-0.355-0.801-0.711-1.186-1.064
			c-0.032-0.029-0.062-0.059-0.094-0.088c-1.392-1.283-2.671-2.548-3.843-3.782c-0.172-0.182-0.347-0.365-0.513-0.544
			c-0.218-0.235-0.429-0.468-0.64-0.7c-5.358-5.971-7.557-10.688-7.573-12.841c-0.001-0.111,0.014-0.231,0.021-0.347
			c0.008-0.151,0.017-0.303,0.037-0.464c0.027-0.208,0.07-0.424,0.117-0.645c0.017-0.081,0.032-0.161,0.052-0.243
			c0.058-0.24,0.127-0.489,0.208-0.743c0.022-0.071,0.046-0.143,0.07-0.215c0.089-0.267,0.187-0.539,0.3-0.82
			c0.023-0.057,0.05-0.117,0.074-0.175c0.519-1.253,1.268-2.63,2.232-4.1c0.067-0.101,0.13-0.202,0.198-0.303
			c0.213-0.319,0.44-0.641,0.673-0.967c0.074-0.103,0.148-0.207,0.224-0.311c0.258-0.353,0.523-0.709,0.804-1.071
			c0.033-0.044,0.069-0.088,0.103-0.132c7.291-9.337,22.07-21.223,42.342-28.759c8.519,11.261,13.16,25.041,13.16,39.331
			C225.229,352.341,220.646,366.039,212.232,377.26z M337.852,356.38c-3.285-2.696-8.113-2.285-10.892,0.923
			c-10.45,12.055-29.601,21.187-52.541,25.056c-3.303,0.557-5.886,3.152-6.428,6.458l-2.208,13.47l-31.852-18.079
			c-1.003-0.859-2.228-1.471-3.59-1.737c-0.79-0.155-1.552-0.335-2.327-0.505c8.36-12.971,12.884-28.15,12.884-43.819
			c0-15.75-4.566-30.996-13.004-44.007c0.765-0.163,1.524-0.331,2.299-0.479c1.15-0.219,2.201-0.687,3.101-1.342l32.488-18.439
			l2.208,13.469c0.543,3.305,3.125,5.9,6.428,6.458c22.94,3.869,42.091,13.002,52.541,25.056c2.781,3.207,7.609,3.616,10.892,0.923
			l30.406-24.965l-11.357,41.11c-0.376,1.364-0.376,2.805-0.001,4.168l11.376,41.261L337.852,356.38z"/>
	</g>
</g>
<g>
	<g>
		<path d="M208.598,308.321h-4.511c-4.328,0-7.834,3.508-7.834,7.834s3.507,7.834,7.834,7.834h4.511
			c4.328,0,7.834-3.508,7.834-7.834S212.925,308.321,208.598,308.321z"/>
	</g>
</g>
<g>
	<g>
		<path d="M118.635,269.627c-14.949,0-27.112,12.163-27.112,27.112c0,14.949,12.162,27.113,27.112,27.113
			c14.949,0,27.111-12.162,27.111-27.113S133.584,269.627,118.635,269.627z M118.635,308.183c-6.309,0-11.443-5.133-11.443-11.444
			c0-6.31,5.133-11.444,11.443-11.444c6.309,0,11.443,5.134,11.443,11.444S124.944,308.183,118.635,308.183z"/>
	</g>
</g>
<g>
	<g>
		<path d="M100.52,192.307c-15.899,0-28.833,12.934-28.833,28.833c0,15.899,12.934,28.834,28.833,28.834
			c15.899,0,28.834-12.934,28.834-28.834C129.352,205.241,116.417,192.307,100.52,192.307z M100.52,234.304
			c-7.258,0-13.164-5.905-13.164-13.165c0-7.259,5.905-13.164,13.164-13.164s13.165,5.905,13.165,13.164
			C113.684,228.399,107.778,234.304,100.52,234.304z"/>
	</g>
</g>
<g>
	<g>
		<path d="M206.344,171.307c-15.898,0-28.834,12.934-28.834,28.834c0,15.899,12.935,28.833,28.834,28.833
			c15.899,0,28.833-12.935,28.833-28.833C235.176,184.242,222.241,171.307,206.344,171.307z M206.344,213.305
			c-7.259,0-13.165-5.906-13.165-13.164c0-7.259,5.905-13.165,13.165-13.165s13.164,5.905,13.164,13.165
			C219.508,207.4,213.602,213.305,206.344,213.305z"/>
	</g>
</g>
</svg>